<svg xmlns="http://www.w3.org/2000/svg" width="161" height="50" viewBox="0 0 161 50" fill="none">
  <g clip-path="url(#clip0_3315_3745)">
    <path d="M9.5301 22.8895C9.2227 21.1516 8.42323 20.1585 6.94703 20.1585C5.77867 20.1585 4.9792 20.779 4.9792 21.8964C4.91772 25.3103 13.4045 26.7379 13.4045 33.2556C13.4045 37.1661 10.7602 39.1524 7.07021 39.1524C3.13433 39.1524 0.858883 36.8558 0.182373 33.0694L4.11825 31.952C4.42565 33.7522 5.04068 35.4281 7.13169 35.4281C8.11583 35.5522 9.03804 34.8074 9.16122 33.7522V33.5038C9.16122 29.7174 0.674219 28.2897 0.674219 22.2687C0.674219 19.0411 3.19582 16.4339 6.3937 16.3721H6.7011C10.2683 16.3721 12.6665 18.7928 13.343 22.2069L9.53033 22.8895H9.5301ZM15.1879 20.5928V16.8685H17.7095V10.9719H22.2604V16.8683H25.2738V20.5926H22.2604V33.1933C22.2604 34.3105 22.7522 34.9933 23.7978 34.9933H25.2738V38.9038C24.5358 39.0902 23.7978 39.1522 22.9984 39.1522C19.6158 39.1522 17.7095 37.5384 17.7095 34.2484V20.5928H15.1879ZM37.02 27.6069C32.8997 29.9658 31.9157 31.4556 31.9157 33.3797C31.9157 34.8074 32.6537 35.3661 34.0065 35.3661C35.2981 35.242 36.4052 34.4348 37.02 33.3176V27.6069ZM27.7337 23.262C27.9796 18.7928 30.7472 16.4339 34.9907 16.4339C39.1725 16.4339 41.5709 18.4205 41.5709 22.3931V36.4833C41.6326 37.2902 41.6941 38.035 41.8785 38.842H37.5735C37.512 38.2212 37.3891 37.6627 37.3276 37.104C35.9131 38.4696 34.0065 39.2145 32.0387 39.2145C28.9638 39.2145 27.4263 37.104 27.4263 34.3107C27.4263 29.4692 30.5627 26.862 37.0817 24.3792V23.0757C37.0817 21.2136 36.3437 20.2826 34.8677 20.2826C32.8382 20.2826 32.3461 21.5239 32.2846 23.3862H27.7337V23.262ZM44.3384 20.5928V16.8685H46.8598V10.9719H51.3492V16.8683H54.3626V20.5926H51.3492V33.1933C51.3492 34.3105 51.8413 34.9933 52.8867 34.9933H54.3626V38.9038C53.6246 39.0902 52.8867 39.1522 52.0872 39.1522C48.7049 39.1522 46.7983 37.5384 46.7983 34.2484V20.5928H44.3384ZM57.3763 16.8065H61.9272V38.7178H57.3763V16.8065ZM57.3763 10.8475H61.9272V15.0067H57.3763V10.8475ZM74.5343 22.8895C74.2269 21.1516 73.4274 20.1585 71.9514 20.1585C70.7829 20.1585 69.9834 20.779 69.9834 21.8964C69.9834 25.3103 78.4702 26.6759 78.4702 33.1935C78.4702 37.104 75.8258 39.0904 72.1359 39.0904C68.2 39.0904 65.9246 36.7937 65.248 33.0074L69.1839 31.8899C69.4913 33.6899 70.1064 35.3661 72.1974 35.3661C73.1813 35.4902 74.1037 34.7453 74.2269 33.6899V33.4417C74.2269 29.6553 65.7399 28.2277 65.7399 22.2067C65.7399 18.979 68.2615 16.3719 71.4594 16.3098H71.7668C75.3338 16.3098 77.6707 18.7308 78.4087 22.1446L74.5343 22.8895ZM80.254 20.5928V16.8685H82.7754V10.9719H87.3263V16.8683H90.3397V20.5926H87.3263V33.1933C87.3263 34.3105 87.8183 34.9933 88.8637 34.9933H90.3397V38.9038C89.6017 39.0902 88.8637 39.1522 88.0643 39.1522C84.6819 39.1522 82.7754 37.5384 82.7754 34.2484V20.5928H80.254ZM102.086 27.6069C97.9655 29.9658 96.9816 31.4556 96.9816 33.3797C96.9816 34.8074 97.7196 35.3661 99.0726 35.3661C100.364 35.242 101.471 34.4348 102.086 33.3176V27.6069ZM92.7381 23.262C92.9841 18.7928 95.7516 16.4339 99.9951 16.4339C104.177 16.4339 106.576 18.4205 106.576 22.3931V36.4833C106.637 37.2902 106.698 38.035 106.883 38.842H102.578C102.516 38.2212 102.393 37.6627 102.332 37.104C100.918 38.4696 99.0112 39.2145 97.0431 39.2145C93.9682 39.2145 92.4307 37.104 92.4307 34.3107C92.4307 29.4692 95.5671 26.862 102.086 24.3792V23.0757C102.086 21.2136 101.348 20.2826 99.8721 20.2826C97.7811 20.2826 97.3505 21.5239 97.289 23.3862H92.7381V23.262Z" fill="white"/>
    <path d="M133.574 27.4828V36.297H128.777V13.3926H135.419C138.493 13.3926 140.769 13.9511 142.245 15.0685C143.721 16.1857 144.459 17.9238 144.459 20.2203C144.459 21.5859 144.09 22.7653 143.352 23.8205C142.614 24.8758 141.568 25.6828 140.216 26.3035C143.659 31.4553 145.873 34.8073 146.919 36.297H141.568L136.157 27.4828H133.574ZM133.574 23.5723H135.111C136.649 23.5723 137.755 23.3241 138.493 22.8274C139.231 22.3307 139.601 21.5238 139.601 20.4066C139.601 19.2892 139.231 18.5444 138.493 18.1098C137.755 17.6754 136.587 17.4272 135.05 17.4272H133.574V23.5723Z" fill="#DCB05E"/>
    <path d="M136.341 0.171143C127.854 0.171143 120.413 4.45418 115.985 11.0336H123.119C126.563 7.74391 131.175 5.6957 136.279 5.6957C146.857 5.6957 155.406 14.3857 155.406 24.9999C155.406 35.6763 146.796 44.3042 136.279 44.3042C131.175 44.3042 126.563 42.256 123.119 39.0281H115.923C120.351 45.5457 127.793 49.8287 136.218 49.8287C149.809 49.8287 160.818 38.7178 160.818 24.9999C160.818 11.2821 149.932 0.171143 136.341 0.171143Z" fill="#DCB05E"/>
  </g>
  <defs>
    <clipPath id="clip0_3315_3745">
      <rect width="161" height="50" fill="white"/>
    </clipPath>
  </defs>
</svg>